<svg width="78" height="78" viewBox="0 0 78 78" fill="none" xmlns="http://www.w3.org/2000/svg">
    <rect width="78" height="78" rx="20" fill="#FEFA28" />
    <path
        d="M22.6615 19.0245C21.9646 19.3433 20.9509 20.1083 20.3808 20.682C18.7335 22.467 18.3851 23.6783 18.3851 27.9814V31.8064H20.7609H23.1367V28.4276C23.1367 25.1445 23.1683 25.0489 24.0553 24.1245C24.9739 23.232 25.069 23.2001 28.3317 23.2001H31.6894V20.8095V18.4189H27.8249C24.7205 18.4189 23.6752 18.5464 22.6615 19.0245Z"
        fill="#172020" />
    <path
        d="M45.3106 20.8095V23.2001H48.605C51.646 23.2001 51.9944 23.2639 52.818 23.9651C53.6733 24.6983 53.705 24.8576 53.8 28.2683L53.9267 31.8064H56.2708H58.6149V27.9814C58.6149 23.7101 58.3615 22.7539 56.6826 20.8095C54.9404 18.8333 53.6733 18.4189 49.2069 18.4189H45.3106V20.8095Z"
        fill="#172020" />
    <path
        d="M42.9348 36.3007C39.7988 39.4563 36.8211 42.3569 36.346 42.7075L35.4274 43.3769L31.8795 39.8069L28.3634 36.2688L26.6211 38.0219L24.8789 39.775L30.264 45.1938L35.6491 50.6125L43.8851 42.325L52.1211 34.0375L50.3789 32.2844L48.6367 30.5313L42.9348 36.3007Z"
        fill="#172020" />
    <path
        d="M18.3851 49.0825C18.3851 53.5769 18.8603 54.9794 20.9509 56.7644C22.6298 58.2307 24.0236 58.5813 28.1733 58.5813H31.6894V56.2225V53.8638L28.205 53.7363C25.1006 53.6407 24.6572 53.5769 24.0236 52.9075C23.3584 52.27 23.295 51.8238 23.2 48.7L23.0733 45.1938H20.7292H18.3851V49.0825Z"
        fill="#172020" />
    <path
        d="M53.8 48.7C53.6733 53.4813 53.5466 53.6088 48.795 53.7363L45.3106 53.8638V56.2225V58.5813H49.0485C52.2795 58.5813 52.9764 58.4857 54.3385 57.8163C56.0491 57.0194 57.5062 55.5532 58.2031 53.8957C58.4565 53.2263 58.6149 51.5369 58.6149 49.0188V45.1938H56.2708H53.9267L53.8 48.7Z"
        fill="#172020" />
</svg>
    