<svg width="80" height="80" viewBox="0 0 80 80" fill="none" xmlns="http://www.w3.org/2000/svg">
    <g clip-path="url(#clip0_113_34207)">
        <path
            d="M40 80C62.0914 80 80 62.0914 80 40C80 17.9086 62.0914 0 40 0C17.9086 0 0 17.9086 0 40C0 62.0914 17.9086 80 40 80Z"
            fill="#22B9BD" />
        <path
            d="M52.4185 37.1868L35.6089 25.6602C34.8542 25.1114 34.0309 24.8369 33.4134 24.8369C32.1098 24.8369 31.3551 25.8661 31.3551 27.5127V52.4184C31.3551 54.1337 32.1098 55.0942 33.3448 55.0942C34.0309 55.0942 34.7856 54.8198 35.5403 54.2709L52.3499 42.7443C53.4477 41.9896 54.0652 41.029 54.0652 39.9313C54.0652 38.8335 53.5163 37.9415 52.4185 37.1868Z"
            fill="white" />
    </g>
    <defs>
        <clipPath id="clip0_113_34207">
            <rect width="80" height="80" fill="white" />
        </clipPath>
    </defs>
</svg>
    
    