<svg width="30" height="30" viewBox="0 0 30 30" fill="none" xmlns="http://www.w3.org/2000/svg">
    <circle cx="15" cy="15" r="15" fill="#14999C" />
    <g clip-path="url(#clip0_123_2632)">
        <path
            d="M17.6088 23.0028C17.0946 23.0022 16.6016 22.7977 16.238 22.4342C15.8745 22.0706 15.67 21.5776 15.6694 21.0634V17.0028C15.6694 16.826 15.5992 16.6564 15.4742 16.5314C15.3491 16.4063 15.1796 16.3361 15.0028 16.3361C14.826 16.3361 14.6564 16.4063 14.5314 16.5314C14.4063 16.6564 14.3361 16.826 14.3361 17.0028V21.0634C14.3361 21.4891 14.1961 21.903 13.9377 22.2413C13.6793 22.5796 13.3168 22.8235 12.906 22.9353C12.4953 23.0472 12.0592 23.0209 11.6649 22.8605C11.2706 22.7 10.94 22.4143 10.7241 22.0474C9.12677 19.3114 7.00277 15.1888 7.00277 11.0028C6.98265 10.4721 7.07235 9.94296 7.26625 9.44855C7.46015 8.95415 7.75407 8.50511 8.12959 8.12959C8.50511 7.75407 8.95415 7.46015 9.44855 7.26625C9.94296 7.07235 10.4721 6.98265 11.0028 7.00277C11.8888 7.00311 12.7693 7.14143 13.6128 7.41277C14.0605 7.56803 14.5291 7.65457 15.0028 7.66944C15.4764 7.65457 15.9451 7.56803 16.3928 7.41277C17.2362 7.14135 18.1168 7.00302 19.0028 7.00277C19.5335 6.98265 20.0626 7.07235 20.557 7.26625C21.0514 7.46015 21.5004 7.75407 21.8759 8.12959C22.2515 8.50511 22.5454 8.95415 22.7393 9.44855C22.9332 9.94296 23.0229 10.4721 23.0028 11.0028C23.0028 15.1881 20.8788 19.3108 19.2814 22.0474C19.1099 22.3385 18.8654 22.5797 18.572 22.7473C18.2786 22.9148 17.9466 23.0029 17.6088 23.0028ZM15.0028 15.0028C15.5332 15.0028 16.0419 15.2135 16.417 15.5886C16.7921 15.9636 17.0028 16.4723 17.0028 17.0028V21.0634C17.003 21.196 17.0466 21.3249 17.127 21.4304C17.2073 21.5359 17.32 21.6121 17.4478 21.6476C17.5756 21.683 17.7114 21.6757 17.8346 21.6266C17.9578 21.5776 18.0616 21.4896 18.1301 21.3761C19.6494 18.7721 21.6694 14.8648 21.6694 11.0028C21.6835 10.6488 21.6242 10.2958 21.4951 9.96585C21.3661 9.63595 21.1702 9.33632 20.9197 9.08583C20.6692 8.83535 20.3696 8.63942 20.0397 8.51039C19.7098 8.38136 19.3567 8.32202 19.0028 8.3361C18.2423 8.33571 17.4866 8.45633 16.7641 8.69344C16.1958 8.88435 15.6021 8.98863 15.0028 9.00277C14.4035 8.98869 13.8097 8.88441 13.2414 8.69344C12.5189 8.45639 11.7632 8.33578 11.0028 8.3361C8.3661 8.3361 8.3361 10.8941 8.3361 11.0028C8.3361 14.8654 10.3561 18.7728 11.8761 21.3761C11.9444 21.4898 12.0481 21.578 12.1714 21.6271C12.2946 21.6763 12.4305 21.6837 12.5583 21.6482C12.6862 21.6127 12.7988 21.5363 12.8791 21.4307C12.9594 21.3251 13.0028 21.1961 13.0028 21.0634V17.0028C13.0028 16.4723 13.2135 15.9636 13.5886 15.5886C13.9636 15.2135 14.4723 15.0028 15.0028 15.0028Z"
            fill="white" />
    </g>
    <defs>
        <clipPath id="clip0_123_2632">
            <rect width="16" height="16" fill="white" transform="translate(7 7)" />
        </clipPath>
    </defs>
</svg>
    