<svg width="30" height="30" viewBox="0 0 30 30" fill="none" xmlns="http://www.w3.org/2000/svg">
    <circle cx="15" cy="15" r="15" fill="#FE5858" />
    <g clip-path="url(#clip0_123_2635)">
        <path
            d="M22.8047 10.5288L19.4713 7.19544C19.3456 7.074 19.1772 7.00681 19.0024 7.00833C18.8276 7.00984 18.6604 7.07996 18.5368 7.20356C18.4132 7.32717 18.3431 7.49438 18.3416 7.66917C18.34 7.84397 18.4072 8.01237 18.5287 8.13811L19.724 9.33344L18.7333 10.3221C18.0931 9.85199 17.306 9.62596 16.5138 9.68475C15.7216 9.74354 14.9765 10.0833 14.4127 10.6428L10.3667 14.6908C9.93205 15.1231 9.58748 15.6372 9.3529 16.2036C9.11831 16.7699 8.99836 17.3771 9 17.9901V20.0568L7.19533 21.8621C7.13166 21.9236 7.08087 21.9972 7.04593 22.0785C7.01099 22.1598 6.9926 22.2473 6.99183 22.3358C6.99106 22.4244 7.00793 22.5121 7.04145 22.5941C7.07497 22.676 7.12447 22.7504 7.18707 22.813C7.24966 22.8756 7.3241 22.9251 7.40603 22.9587C7.48796 22.9922 7.57575 23.009 7.66427 23.0083C7.75279 23.0075 7.84027 22.9891 7.9216 22.9542C8.00294 22.9192 8.0765 22.8684 8.138 22.8048L9.94267 21.0001H12.0093C12.6223 21.0017 13.2295 20.8818 13.7959 20.6472C14.3622 20.4126 14.8764 20.0681 15.3087 19.6334L19.3567 15.5854C19.9166 15.0223 20.2567 14.2775 20.3157 13.4855C20.3746 12.6935 20.1484 11.9066 19.678 11.2668L20.6667 10.2761L21.862 11.4714C21.9877 11.5929 22.1561 11.6601 22.3309 11.6586C22.5057 11.657 22.6729 11.5869 22.7965 11.4633C22.9202 11.3397 22.9903 11.1725 22.9918 10.9977C22.9933 10.8229 22.9261 10.6545 22.8047 10.5288ZM18.4147 14.6428L14.3667 18.6908C14.0579 19.0012 13.6906 19.2473 13.2861 19.4148C12.8816 19.5823 12.4478 19.668 12.01 19.6668H10.3333V17.9901C10.3335 17.7717 10.3547 17.5538 10.3967 17.3394L11.1967 18.1394C11.2582 18.2031 11.3317 18.2539 11.4131 18.2888C11.4944 18.3238 11.5819 18.3422 11.6704 18.3429C11.7589 18.3437 11.8467 18.3268 11.9286 18.2933C12.0106 18.2598 12.085 18.2103 12.1476 18.1477C12.2102 18.0851 12.2597 18.0107 12.2932 17.9287C12.3267 17.8468 12.3436 17.759 12.3428 17.6705C12.3421 17.582 12.3237 17.4945 12.2887 17.4132C12.2538 17.3318 12.203 17.2583 12.1393 17.1968L10.9787 16.0361C11.0792 15.8943 11.1906 15.7605 11.312 15.6361L12 14.9428L13.1953 16.1381C13.3211 16.2595 13.4895 16.3267 13.6643 16.3252C13.8391 16.3237 14.0063 16.2536 14.1299 16.13C14.2535 16.0064 14.3236 15.8392 14.3251 15.6644C14.3266 15.4896 14.2594 15.3212 14.138 15.1954L12.9427 14.0001L14 12.9428L15.1953 14.1381C15.3211 14.2595 15.4895 14.3267 15.6643 14.3252C15.8391 14.3237 16.0063 14.2536 16.1299 14.13C16.2535 14.0064 16.3236 13.8392 16.3251 13.6644C16.3266 13.4896 16.2594 13.3212 16.138 13.1954L14.9427 12.0001L15.3573 11.5854C15.7384 11.222 16.2447 11.0192 16.7713 11.0192C17.2979 11.0192 17.8043 11.222 18.1853 11.5854L18.4147 11.8148C18.7896 12.1898 19.0002 12.6984 19.0002 13.2288C19.0002 13.7591 18.7896 14.2677 18.4147 14.6428Z"
            fill="white" />
    </g>
    <defs>
        <clipPath id="clip0_123_2635">
            <rect width="16" height="16" fill="white" transform="translate(7 7)" />
        </clipPath>
    </defs>
</svg>
    