<svg width="30" height="30" viewBox="0 0 30 30" fill="none" xmlns="http://www.w3.org/2000/svg">
    <circle cx="15" cy="15" r="15" fill="#FFB71A" />
    <g clip-path="url(#clip0_123_2634)">
        <path
            d="M20.3333 11.0673V10.3333C20.3333 8.49533 18.838 7 17 7H13C11.162 7 9.66667 8.49533 9.66667 10.3333V11.0673C8.14733 11.3773 7 12.724 7 14.3333V19.6667C7 21.5047 8.49533 23 10.3333 23H19.6667C21.5047 23 23 21.5047 23 19.6667V14.3333C23 12.724 21.8527 11.3767 20.3333 11.0673ZM8.33333 19.6667V14.3333C8.33333 13.464 8.89067 12.7233 9.66667 12.448V21.552C8.89067 21.2767 8.33333 20.536 8.33333 19.6667ZM11 10.3333C11 9.23067 11.8973 8.33333 13 8.33333H17C18.1027 8.33333 19 9.23067 19 10.3333V21.6667H11V10.3333ZM21.6667 19.6667C21.6667 20.536 21.1093 21.2767 20.3333 21.552V12.448C21.1093 12.7233 21.6667 13.464 21.6667 14.3333V19.6667ZM14.3333 16.3333C14.3333 16.7013 14.0353 17 13.6667 17H13C12.6313 17 12.3333 16.7013 12.3333 16.3333C12.3333 15.9653 12.6313 15.6667 13 15.6667H13.6667C14.0353 15.6667 14.3333 15.9653 14.3333 16.3333ZM17.6667 16.3333C17.6667 16.7013 17.3687 17 17 17H16.3333C15.9647 17 15.6667 16.7013 15.6667 16.3333C15.6667 15.9653 15.9647 15.6667 16.3333 15.6667H17C17.3687 15.6667 17.6667 15.9653 17.6667 16.3333ZM14.3333 19C14.3333 19.368 14.0353 19.6667 13.6667 19.6667H13C12.6313 19.6667 12.3333 19.368 12.3333 19C12.3333 18.632 12.6313 18.3333 13 18.3333H13.6667C14.0353 18.3333 14.3333 18.632 14.3333 19ZM17.6667 19C17.6667 19.368 17.3687 19.6667 17 19.6667H16.3333C15.9647 19.6667 15.6667 19.368 15.6667 19C15.6667 18.632 15.9647 18.3333 16.3333 18.3333H17C17.3687 18.3333 17.6667 18.632 17.6667 19ZM15.6667 13C15.6667 13.368 15.3687 13.6667 15 13.6667C14.6313 13.6667 14.3333 13.368 14.3333 13V12.3333H13.6667C13.298 12.3333 13 12.0347 13 11.6667C13 11.2987 13.298 11 13.6667 11H14.3333V10.3333C14.3333 9.96533 14.6313 9.66667 15 9.66667C15.3687 9.66667 15.6667 9.96533 15.6667 10.3333V11H16.3333C16.702 11 17 11.2987 17 11.6667C17 12.0347 16.702 12.3333 16.3333 12.3333H15.6667V13Z"
            fill="white" />
    </g>
    <defs>
        <clipPath id="clip0_123_2634">
            <rect width="16" height="16" fill="white" transform="translate(7 7)" />
        </clipPath>
    </defs>
</svg>
    