<svg width="30" height="30" viewBox="0 0 30 30" fill="none" xmlns="http://www.w3.org/2000/svg">
    <circle cx="15" cy="15" r="15" fill="#2780BF" />
    <g clip-path="url(#clip0_123_2630)">
        <path
            d="M17.2342 7.07221C17.0435 7.18477 16.9372 7.37861 16.9372 7.61311C16.9372 7.91951 17.0091 8.01018 17.5219 8.35723C19.3353 9.5891 20.686 10.9585 21.7584 12.6438C21.9772 12.9877 22.1054 13.069 22.4118 13.0502C22.812 13.0283 23.0278 12.7845 23.0027 12.3874C22.9902 12.1591 22.8964 11.9966 22.3587 11.2337C21.2706 9.69853 19.6448 8.16338 18.0503 7.16288C17.7907 7.0003 17.7689 6.99092 17.5719 6.99092C17.4062 6.99092 17.3405 7.00655 17.2342 7.07221Z"
            fill="white" />
        <path
            d="M16.8966 9.56725C16.6496 9.67981 16.487 9.99872 16.5339 10.2613C16.5745 10.4833 16.6527 10.574 17.0623 10.8929C17.8502 11.5089 18.488 12.1342 19.1227 12.9283C19.5229 13.4286 19.5885 13.4692 19.9043 13.4567C20.0982 13.4473 20.1451 13.4348 20.2482 13.3504C20.4765 13.1691 20.5672 12.8533 20.464 12.6032C20.4077 12.4718 20.1201 12.0904 19.7449 11.6495C19.1915 11.0055 18.3223 10.2019 17.6626 9.7267C17.4156 9.54849 17.3906 9.53911 17.1967 9.53286C17.0685 9.5266 16.956 9.53911 16.8966 9.56725Z"
            fill="white" />
        <path
            d="M13.5042 10.6364C13.0509 10.7552 12.7882 10.9522 12.0379 11.7338C11.4657 12.331 11.2249 12.6499 11.003 13.0877C10.7091 13.6754 10.5809 14.1632 10.534 14.8979C10.4996 15.417 10.4777 15.517 10.3245 15.8234C10.2244 16.0204 10.0837 16.1736 8.89252 17.3711C7.55748 18.7155 7.39489 18.9031 7.21668 19.3002C7.04784 19.6691 6.99157 19.9849 7.0072 20.482C7.0197 20.8697 7.03221 20.9541 7.12288 21.2136C7.2667 21.6388 7.43554 21.9077 7.76383 22.236C8.09525 22.5674 8.361 22.7331 8.78309 22.877C9.04885 22.9676 9.12702 22.9801 9.51784 22.9926C10.0025 23.0051 10.2057 22.9739 10.609 22.8175C11.0655 22.6393 11.2156 22.5111 12.5975 21.1261C13.498 20.2256 13.9482 19.7942 14.0701 19.7222C14.3828 19.5378 14.5673 19.494 15.1175 19.4627C16.1681 19.4065 16.6871 19.2533 17.3155 18.8093C17.575 18.6248 18.6975 17.5368 18.957 17.2179C19.2446 16.8614 19.3759 16.5363 19.4041 16.1017C19.4353 15.5983 19.3196 15.2544 18.9163 14.6509C17.9783 13.2534 16.8059 12.0872 15.3583 11.1085C14.9424 10.8303 14.6298 10.6739 14.3859 10.6208C14.1577 10.5739 13.7137 10.5801 13.5042 10.6364ZM14.2734 11.9496C14.3578 11.9934 14.5891 12.1434 14.7861 12.2841C16.0274 13.1533 17.0341 14.1663 17.8158 15.3294C18.1409 15.814 18.1878 15.9797 18.0721 16.2299C18.0034 16.3799 17.3499 17.0303 17.328 16.9709C17.2936 16.8833 16.7433 16.0798 16.5182 15.789C15.968 15.0824 15.3239 14.4133 14.6423 13.8474C14.264 13.5285 14.142 13.466 13.9263 13.4628C13.6105 13.4628 13.3448 13.6848 13.2979 13.9819C13.2541 14.2726 13.3385 14.4383 13.6605 14.7072C14.5923 15.4857 15.3395 16.2986 15.9117 17.1522C16.1118 17.4555 16.3494 17.8463 16.3494 17.8838C16.3494 17.9213 15.9992 18.062 15.7866 18.1089C15.6741 18.1339 15.3364 18.1683 15.0362 18.184C14.239 18.2277 13.795 18.3559 13.2635 18.703C13.1572 18.7718 12.5193 19.3783 11.7221 20.1693C10.4902 21.3918 10.3433 21.5263 10.1682 21.6013C9.64915 21.8296 9.06761 21.7232 8.67054 21.3293C8.26721 20.9228 8.16716 20.3225 8.41416 19.7848C8.46418 19.6722 8.80498 19.3127 9.79923 18.309C10.8935 17.2085 11.153 16.9302 11.3094 16.6926C11.6377 16.1923 11.7627 15.7734 11.8127 15.0074C11.8596 14.3195 12.0191 13.8255 12.3505 13.3315C12.51 13.0939 13.5699 12.0121 13.7231 11.9308C13.8825 11.8433 14.0889 11.8527 14.2734 11.9496Z"
            fill="white" />
        <path
            d="M11.25 17.8996C11.1749 17.9465 10.8717 18.2341 10.5778 18.5311C9.98683 19.1314 9.94619 19.1971 9.98371 19.5097C10.0275 19.9037 10.4027 20.1382 10.806 20.0288C10.9373 19.9912 11.0249 19.9193 11.5001 19.4535C12.1598 18.8031 12.2223 18.7156 12.2223 18.4373C12.2223 18.0496 11.9816 17.8089 11.5939 17.8089C11.4219 17.8089 11.3688 17.8245 11.25 17.8996Z"
            fill="white" />
    </g>
    <defs>
        <clipPath id="clip0_123_2630">
            <rect width="17" height="17" fill="white" transform="translate(7 6)" />
        </clipPath>
    </defs>
</svg>
    