<svg width="30" height="30" viewBox="0 0 30 30" fill="none" xmlns="http://www.w3.org/2000/svg">
    <circle cx="15" cy="15" r="15" fill="#8778EA" />
    <g clip-path="url(#clip0_123_2628)">
        <path
            d="M23 16C23 12.8753 20.458 10.3333 17.3333 10.3333H15.6667C15.6667 9.464 15.1093 8.72333 14.3333 8.448V7.66667C14.3333 7.29867 14.0353 7 13.6667 7C13.298 7 13 7.29867 13 7.66667V8.448C12.224 8.72333 11.6667 9.464 11.6667 10.3333V15.6667C11.6667 16.0347 11.9647 16.3333 12.3333 16.3333H15C15.3687 16.3333 15.6667 16.0347 15.6667 15.6667V11.6667H17.3333C19.7227 11.6667 21.6667 13.6107 21.6667 16C21.6667 18.3893 19.7227 20.3333 17.3333 20.3333H14.3333V19H17C17.3687 19 17.6667 18.7013 17.6667 18.3333C17.6667 17.9653 17.3687 17.6667 17 17.6667H10.3333C9.96466 17.6667 9.66666 17.9653 9.66666 18.3333C9.66666 18.7013 9.96466 19 10.3333 19H13V20.3333H8.33332C7.96466 20.3333 7.66666 20.632 7.66666 21C7.66666 21.368 7.96466 21.6667 8.33332 21.6667H8.99999V22.3333C8.99999 22.7013 9.29799 23 9.66666 23C10.0353 23 10.3333 22.7013 10.3333 22.3333V21.6667H17V22.3333C17 22.7013 17.298 23 17.6667 23C18.0353 23 18.3333 22.7013 18.3333 22.3333V21.578C20.9827 21.104 23 18.7833 23 16ZM14.3333 15H13V10.3333C13 9.966 13.2987 9.66667 13.6667 9.66667C14.0347 9.66667 14.3333 9.966 14.3333 10.3333V15Z"
            fill="white" />
    </g>
    <defs>
        <clipPath id="clip0_123_2628">
            <rect width="16" height="16" fill="white" transform="translate(7 7)" />
        </clipPath>
    </defs>
</svg>
    