<svg width="64" height="64" viewBox="0 0 64 64" fill="none" xmlns="http://www.w3.org/2000/svg">
    <circle cx="32" cy="32" r="32" fill="white" />
    <g clip-path="url(#clip0_123_6473)">
        <path
            d="M49.0667 34.1334C49.0667 27.4674 43.6437 22.0445 36.9778 22.0445H33.4222C33.4222 20.1899 32.2333 18.6098 30.5778 18.0224V16.3556C30.5778 15.5705 29.9421 14.9333 29.1556 14.9333C28.3691 14.9333 27.7333 15.5705 27.7333 16.3556V18.0224C26.0779 18.6098 24.8889 20.1899 24.8889 22.0445V33.4222C24.8889 34.2073 25.5246 34.8445 26.3111 34.8445H32C32.7865 34.8445 33.4222 34.2073 33.4222 33.4222V24.8889H36.9778C42.075 24.8889 46.2222 29.0361 46.2222 34.1334C46.2222 39.2306 42.075 43.3778 36.9778 43.3778H30.5778V40.5333H36.2667C37.0532 40.5333 37.6889 39.8962 37.6889 39.1111C37.6889 38.3261 37.0532 37.6889 36.2667 37.6889H22.0445C21.258 37.6889 20.6222 38.3261 20.6222 39.1111C20.6222 39.8962 21.258 40.5333 22.0445 40.5333H27.7333V43.3778H17.7778C16.9913 43.3778 16.3556 44.0149 16.3556 44.8C16.3556 45.5851 16.9913 46.2222 17.7778 46.2222H19.2V47.6445C19.2 48.4295 19.8357 49.0667 20.6222 49.0667C21.4087 49.0667 22.0445 48.4295 22.0445 47.6445V46.2222H36.2667V47.6445C36.2667 48.4295 36.9024 49.0667 37.6889 49.0667C38.4754 49.0667 39.1111 48.4295 39.1111 47.6445V46.0331C44.763 45.0219 49.0667 40.0711 49.0667 34.1334ZM30.5778 32H27.7333V22.0445C27.7333 21.2608 28.3705 20.6222 29.1556 20.6222C29.9406 20.6222 30.5778 21.2608 30.5778 22.0445V32Z"
            fill="#8778EA" />
    </g>
    <defs>
        <clipPath id="clip0_123_6473">
            <rect width="34.1333" height="34.1333" fill="white"
                transform="translate(14.9333 14.9333)" />
        </clipPath>
    </defs>
</svg>
    