<svg width="64" height="64" viewBox="0 0 64 64" fill="none" xmlns="http://www.w3.org/2000/svg">
    <circle cx="32" cy="32" r="32" fill="white" />
    <g clip-path="url(#clip0_123_6499)">
        <path
            d="M37.5654 49.0726C36.4684 49.0715 35.4168 48.6352 34.6411 47.8596C33.8655 47.0839 33.4292 46.0323 33.4281 44.9353V36.2726C33.4281 35.8954 33.2783 35.5336 33.0116 35.2669C32.7448 35.0002 32.3831 34.8504 32.0059 34.8504C31.6287 34.8504 31.2669 35.0002 31.0002 35.2669C30.7335 35.5336 30.5837 35.8954 30.5837 36.2726V44.9353C30.5837 45.8435 30.2851 46.7265 29.7338 47.4481C29.1824 48.1698 28.4091 48.69 27.5328 48.9287C26.6566 49.1675 25.7262 49.1113 24.885 48.769C24.0439 48.4267 23.3386 47.8172 22.8781 47.0345C19.4704 41.1977 14.9392 32.4027 14.9392 23.4726C14.8963 22.3405 15.0877 21.2117 15.5013 20.1569C15.915 19.1022 16.542 18.1443 17.3431 17.3431C18.1442 16.542 19.1022 15.915 20.1569 15.5014C21.2116 15.0877 22.3404 14.8963 23.4726 14.9393C25.3627 14.94 27.2412 15.2351 29.0406 15.8139C29.9957 16.1452 30.9955 16.3298 32.0059 16.3615C33.0163 16.3298 34.0161 16.1452 34.9712 15.8139C36.7705 15.2349 38.6491 14.9398 40.5392 14.9393C41.6714 14.8963 42.8002 15.0877 43.8549 15.5014C44.9096 15.915 45.8676 16.542 46.6687 17.3431C47.4698 18.1443 48.0968 19.1022 48.5105 20.1569C48.9241 21.2117 49.1155 22.3405 49.0726 23.4726C49.0726 32.4013 44.5414 41.1963 41.1337 47.0345C40.7678 47.6555 40.2461 48.1701 39.6202 48.5275C38.9944 48.885 38.2861 49.0729 37.5654 49.0726ZM32.0059 32.0059C33.1375 32.0059 34.2227 32.4554 35.0229 33.2556C35.823 34.0558 36.2726 35.141 36.2726 36.2726V44.9353C36.2731 45.2182 36.3661 45.4931 36.5376 45.7182C36.709 45.9432 36.9493 46.1059 37.2219 46.1815C37.4945 46.2571 37.7843 46.2414 38.0472 46.1369C38.31 46.0323 38.5314 45.8446 38.6775 45.6024C41.9188 40.0472 46.2281 31.7115 46.2281 23.4726C46.2582 22.7175 46.1316 21.9643 45.8563 21.2605C45.581 20.5567 45.1631 19.9175 44.6287 19.3831C44.0943 18.8488 43.4551 18.4308 42.7513 18.1555C42.0475 17.8803 41.2943 17.7537 40.5392 17.7837C38.9169 17.7829 37.3048 18.0402 35.7634 18.546C34.5511 18.9533 33.2844 19.1758 32.0059 19.2059C30.7274 19.1759 29.4606 18.9534 28.2484 18.546C26.7069 18.0403 25.0948 17.783 23.4726 17.7837C17.8477 17.7837 17.7837 23.2408 17.7837 23.4726C17.7837 31.7129 22.093 40.0486 25.3357 45.6024C25.4814 45.8449 25.7027 46.033 25.9656 46.1379C26.2284 46.2427 26.5184 46.2585 26.7911 46.1828C27.0638 46.1072 27.3042 45.9442 27.4754 45.7189C27.6466 45.4936 27.7393 45.2183 27.7392 44.9353V36.2726C27.7392 35.141 28.1887 34.0558 28.9889 33.2556C29.7891 32.4554 30.8743 32.0059 32.0059 32.0059Z"
            fill="#22B9BD" />
    </g>
    <defs>
        <clipPath id="clip0_123_6499">
            <rect width="34.1333" height="34.1333" fill="white"
                transform="translate(14.9333 14.9333)" />
        </clipPath>
    </defs>
</svg>
    