<svg width="64" height="64" viewBox="0 0 64 64" fill="none" xmlns="http://www.w3.org/2000/svg">
    <circle cx="32" cy="32" r="32" fill="white" />
    <g clip-path="url(#clip0_123_6496)">
        <path
            d="M43.3333 23.6431V22.0833C43.3333 18.1776 40.1557 15 36.25 15H27.75C23.8442 15 20.6667 18.1776 20.6667 22.0833V23.6431C17.4381 24.3018 15 27.1635 15 30.5833V41.9167C15 45.8224 18.1776 49 22.0833 49H41.9167C45.8224 49 49 45.8224 49 41.9167V30.5833C49 27.1635 46.5619 24.3004 43.3333 23.6431ZM17.8333 41.9167V30.5833C17.8333 28.736 19.0177 27.1621 20.6667 26.577V45.923C19.0177 45.3379 17.8333 43.764 17.8333 41.9167ZM23.5 22.0833C23.5 19.7402 25.4068 17.8333 27.75 17.8333H36.25C38.5932 17.8333 40.5 19.7402 40.5 22.0833V46.1667H23.5V22.0833ZM46.1667 41.9167C46.1667 43.764 44.9823 45.3379 43.3333 45.923V26.577C44.9823 27.1621 46.1667 28.736 46.1667 30.5833V41.9167ZM30.5833 34.8333C30.5833 35.6153 29.9501 36.25 29.1667 36.25H27.75C26.9666 36.25 26.3333 35.6153 26.3333 34.8333C26.3333 34.0513 26.9666 33.4167 27.75 33.4167H29.1667C29.9501 33.4167 30.5833 34.0513 30.5833 34.8333ZM37.6667 34.8333C37.6667 35.6153 37.0334 36.25 36.25 36.25H34.8333C34.0499 36.25 33.4167 35.6153 33.4167 34.8333C33.4167 34.0513 34.0499 33.4167 34.8333 33.4167H36.25C37.0334 33.4167 37.6667 34.0513 37.6667 34.8333ZM30.5833 40.5C30.5833 41.282 29.9501 41.9167 29.1667 41.9167H27.75C26.9666 41.9167 26.3333 41.282 26.3333 40.5C26.3333 39.718 26.9666 39.0833 27.75 39.0833H29.1667C29.9501 39.0833 30.5833 39.718 30.5833 40.5ZM37.6667 40.5C37.6667 41.282 37.0334 41.9167 36.25 41.9167H34.8333C34.0499 41.9167 33.4167 41.282 33.4167 40.5C33.4167 39.718 34.0499 39.0833 34.8333 39.0833H36.25C37.0334 39.0833 37.6667 39.718 37.6667 40.5ZM33.4167 27.75C33.4167 28.532 32.7834 29.1667 32 29.1667C31.2166 29.1667 30.5833 28.532 30.5833 27.75V26.3333H29.1667C28.3832 26.3333 27.75 25.6987 27.75 24.9167C27.75 24.1347 28.3832 23.5 29.1667 23.5H30.5833V22.0833C30.5833 21.3013 31.2166 20.6667 32 20.6667C32.7834 20.6667 33.4167 21.3013 33.4167 22.0833V23.5H34.8333C35.6167 23.5 36.25 24.1347 36.25 24.9167C36.25 25.6987 35.6167 26.3333 34.8333 26.3333H33.4167V27.75Z"
            fill="#FFB71A" />
    </g>
    <defs>
        <clipPath id="clip0_123_6496">
            <rect width="34" height="34" fill="white" transform="translate(15 15)" />
        </clipPath>
    </defs>
</svg>
    