<svg width="64" height="64" viewBox="0 0 64 64" fill="none" xmlns="http://www.w3.org/2000/svg">
    <circle cx="32" cy="32" r="32" fill="white" />
    <g clip-path="url(#clip0_123_6497)">
        <path
            d="M48.65 22.4612L41.5389 15.35C41.2707 15.091 40.9114 14.9476 40.5385 14.9509C40.1656 14.9541 39.8089 15.1037 39.5452 15.3674C39.2815 15.6311 39.1319 15.9878 39.1287 16.3607C39.1254 16.7336 39.2688 17.0928 39.5279 17.3611L42.0779 19.9111L39.9645 22.0203C38.5986 21.0173 36.9194 20.5351 35.2295 20.6606C33.5395 20.786 31.95 21.5108 30.7471 22.7044L22.1156 31.3401C21.1884 32.2623 20.4533 33.3592 19.9529 34.5674C19.4524 35.7755 19.1965 37.071 19.2 38.3787V42.7875L15.3501 46.6389C15.2142 46.7701 15.1059 46.9271 15.0314 47.1006C14.9568 47.2741 14.9176 47.4607 14.9159 47.6496C14.9143 47.8384 14.9503 48.0257 15.0218 48.2005C15.0933 48.3752 15.1989 48.534 15.3325 48.6676C15.466 48.8011 15.6248 48.9067 15.7996 48.9782C15.9744 49.0497 16.1616 49.0857 16.3505 49.0841C16.5393 49.0824 16.7259 49.0432 16.8995 48.9687C17.073 48.8941 17.2299 48.7858 17.3611 48.65L21.2111 44.8H25.6199C26.9277 44.8035 28.2231 44.5476 29.4312 44.0472C30.6394 43.5467 31.7363 42.8116 32.6585 41.8844L41.2943 33.2487C42.4888 32.0473 43.2144 30.4584 43.3401 28.7688C43.4658 27.0793 42.9833 25.4005 41.9798 24.0356L44.0889 21.9221L46.639 24.4722C46.9072 24.7312 47.2665 24.8746 47.6394 24.8714C48.0123 24.8681 48.369 24.7185 48.6327 24.4548C48.8964 24.1912 49.0459 23.8344 49.0492 23.4615C49.0524 23.0886 48.9091 22.7294 48.65 22.4612ZM39.2847 31.2377L30.6489 39.8734C29.9902 40.5356 29.2067 41.0606 28.3437 41.418C27.4807 41.7754 26.5554 41.9581 25.6214 41.9556H22.0445V38.3787C22.0449 37.9127 22.0902 37.4479 22.1796 36.9906L23.8863 38.6972C24.0175 38.8331 24.1744 38.9414 24.3479 39.016C24.5214 39.0905 24.708 39.1297 24.8969 39.1314C25.0857 39.133 25.273 39.097 25.4478 39.0255C25.6226 38.954 25.7814 38.8484 25.9149 38.7149C26.0484 38.5813 26.1541 38.4225 26.2256 38.2478C26.2971 38.073 26.3331 37.8857 26.3314 37.6968C26.3298 37.508 26.2905 37.3214 26.216 37.1479C26.1415 36.9743 26.0331 36.8174 25.8973 36.6862L23.4212 34.2101C23.6356 33.9075 23.8733 33.6222 24.1323 33.3568L25.6 31.8777L28.1501 34.4277C28.4183 34.6868 28.7776 34.8302 29.1505 34.8269C29.5234 34.8237 29.8801 34.6741 30.1438 34.4104C30.4075 34.1467 30.557 33.79 30.5603 33.4171C30.5635 33.0442 30.4202 32.6849 30.1611 32.4167L27.6111 29.8667L29.8667 27.611L32.4167 30.1611C32.685 30.4201 33.0442 30.5635 33.4171 30.5602C33.79 30.557 34.1468 30.4074 34.4104 30.1437C34.6741 29.88 34.8237 29.5233 34.827 29.1504C34.8302 28.7775 34.6868 28.4183 34.4278 28.15L31.8777 25.6L32.7623 24.7154C33.5752 23.94 34.6555 23.5074 35.7789 23.5074C36.9023 23.5074 37.9825 23.94 38.7954 24.7154L39.2847 25.2046C40.0845 26.0047 40.5339 27.0898 40.5339 28.2212C40.5339 29.3525 40.0845 30.4376 39.2847 31.2377Z"
            fill="#FE5858" />
    </g>
    <defs>
        <clipPath id="clip0_123_6497">
            <rect width="34.1333" height="34.1333" fill="white"
                transform="translate(14.9333 14.9333)" />
        </clipPath>
    </defs>
</svg>
    