<svg width="64" height="64" viewBox="0 0 64 64" fill="none" xmlns="http://www.w3.org/2000/svg">
    <circle cx="32" cy="32" r="32" fill="white" />
    <g clip-path="url(#clip0_123_6463)">
        <path
            d="M36.7663 15.0875C36.3594 15.3276 36.1326 15.7412 36.1326 16.2414C36.1326 16.8951 36.286 17.0885 37.3799 17.8289C41.2485 20.4569 44.13 23.3783 46.4178 26.9735C46.8847 27.7072 47.1582 27.8806 47.8118 27.8406C48.6656 27.7939 49.1258 27.2736 49.0725 26.4265C49.0458 25.9396 48.8457 25.5928 47.6984 23.9653C45.3773 20.6903 41.9089 17.4153 38.5072 15.2809C37.9535 14.9341 37.9069 14.9141 37.4866 14.9141C37.1331 14.9141 36.9931 14.9474 36.7663 15.0875Z"
            fill="#2780BF" />
        <path
            d="M36.0459 20.4101C35.519 20.6502 35.1721 21.3306 35.2722 21.8908C35.3589 22.3644 35.5257 22.5578 36.3994 23.2382C38.0803 24.5522 39.441 25.8862 40.795 27.5804C41.6487 28.6476 41.7888 28.7343 42.4625 28.7076C42.876 28.6876 42.9761 28.6609 43.1962 28.4808C43.6831 28.094 43.8765 27.4203 43.6564 26.8867C43.5364 26.6065 42.9227 25.7928 42.1223 24.8523C40.9417 23.4783 39.0875 21.7641 37.6801 20.7503C37.1531 20.3701 37.0998 20.3501 36.6862 20.3367C36.4128 20.3234 36.1727 20.3501 36.0459 20.4101Z"
            fill="#2780BF" />
        <path
            d="M28.809 22.6914C27.8418 22.9449 27.2815 23.3651 25.6807 25.0326C24.4601 26.3066 23.9465 26.9869 23.4729 27.9207C22.846 29.1747 22.5725 30.2152 22.4724 31.7827C22.3991 32.8899 22.3524 33.1033 22.0256 33.757C21.8121 34.1772 21.512 34.504 18.9707 37.0587C16.1226 39.9268 15.7757 40.327 15.3956 41.1741C15.0354 41.9611 14.9153 42.6348 14.9487 43.6953C14.9753 44.5224 15.002 44.7025 15.1955 45.2561C15.5023 46.1632 15.8625 46.7369 16.5628 47.4372C17.2698 48.1442 17.8368 48.4977 18.7372 48.8046C19.3042 48.998 19.4709 49.0247 20.3047 49.0513C21.3385 49.078 21.7721 49.0113 22.6325 48.6778C23.6063 48.2976 23.9265 48.0242 26.8747 45.0693C28.7956 43.1484 29.7561 42.2279 30.0162 42.0745C30.6832 41.681 31.0768 41.5876 32.2507 41.5209C34.4918 41.4008 35.5991 41.074 36.9397 40.1269C37.4933 39.7333 39.8879 37.4122 40.4415 36.7318C41.0551 35.9714 41.3353 35.2778 41.3953 34.3506C41.462 33.2767 41.2152 32.543 40.3548 31.2557C38.3538 28.2742 35.8525 25.7863 32.7643 23.6986C31.8772 23.105 31.2102 22.7715 30.6899 22.6581C30.203 22.558 29.2559 22.5714 28.809 22.6914ZM30.4498 25.4928C30.6299 25.5862 31.1235 25.9064 31.5437 26.2065C34.1917 28.0608 36.3394 30.2219 38.0069 32.7031C38.7006 33.737 38.8007 34.0905 38.5539 34.6241C38.4071 34.9443 37.0131 36.3316 36.9664 36.2049C36.893 36.0181 35.7191 34.3039 35.2389 33.6836C34.0649 32.1762 32.6909 30.7488 31.2369 29.5415C30.4298 28.8612 30.1697 28.7278 29.7094 28.7211C29.0357 28.7211 28.4688 29.1947 28.3687 29.8283C28.2754 30.4487 28.4555 30.8022 29.1425 31.3758C31.1301 33.0366 32.7243 34.7708 33.9449 36.5917C34.3718 37.2387 34.8787 38.0725 34.8787 38.1525C34.8787 38.2326 34.1316 38.5327 33.6781 38.6328C33.438 38.6861 32.7176 38.7595 32.0773 38.7929C30.3764 38.8862 29.4293 39.1597 28.2954 39.9001C28.0686 40.0468 26.7079 41.3408 25.0071 43.0283C22.3791 45.6363 22.0656 45.9231 21.6921 46.0832C20.5848 46.5701 19.3442 46.3433 18.4971 45.5029C17.6367 44.6358 17.4232 43.3552 17.9502 42.2079C18.0569 41.9678 18.7839 41.2007 20.905 39.0597C23.2395 36.7118 23.7931 36.1182 24.1266 35.6113C24.827 34.5441 25.0938 33.6503 25.2005 32.0161C25.3005 30.5487 25.6407 29.4948 26.3477 28.441C26.6879 27.9341 28.949 25.6262 29.2759 25.4528C29.616 25.2661 30.0563 25.2861 30.4498 25.4928Z"
            fill="#2780BF" />
        <path
            d="M23.9999 38.1863C23.8398 38.2864 23.1928 38.9 22.5658 39.5337C21.3052 40.8143 21.2185 40.9544 21.2985 41.6214C21.3919 42.4618 22.1923 42.9621 23.0527 42.7286C23.3329 42.6486 23.5196 42.4952 24.5335 41.5013C25.9409 40.114 26.0743 39.9272 26.0743 39.3336C26.0743 38.5065 25.5607 37.9929 24.7336 37.9929C24.3667 37.9929 24.2533 38.0262 23.9999 38.1863Z"
            fill="#2780BF" />
    </g>
    <defs>
        <clipPath id="clip0_123_6463">
            <rect width="36.2667" height="36.2667" fill="white" transform="translate(14.9333 12.8)" />
        </clipPath>
    </defs>
</svg>
    