<svg width="64" height="64" viewBox="0 0 64 64" fill="none" xmlns="http://www.w3.org/2000/svg">
    <circle cx="32" cy="32" r="32" fill="white" />
    <g clip-path="url(#clip0_123_6501)">
        <path
            d="M29.8372 15.0457C25.9731 15.5656 22.6887 17.1851 19.9373 19.9377C17.1992 22.6703 15.5203 26.0894 15.0473 29.8684C14.9141 30.9548 14.9141 33.0475 15.0473 34.1339C15.5137 37.8996 17.1925 41.312 19.9106 44.0379C20.8766 45.0043 21.5495 45.5642 22.5755 46.244C24.8472 47.7569 27.5254 48.7233 30.2569 49.0032C31.2362 49.1032 33.7345 49.0432 34.6339 48.8966C38.2447 48.3167 41.4425 46.6839 44.0274 44.0979C46.6656 41.4653 48.2179 38.4727 48.8641 34.7671C49.064 33.634 49.1173 31.1081 48.964 29.935C48.4444 25.9894 46.8388 22.717 44.0607 19.9377C41.3093 17.1785 37.9516 15.5256 34.1142 15.0391C33.1349 14.9124 30.7698 14.9191 29.8372 15.0457ZM33.9343 17.1118C37.6585 17.605 41.0761 19.4779 43.4745 22.3371C45.7862 25.0897 46.9921 28.4088 46.9921 32.0012C46.9921 35.0137 46.166 37.7796 44.5337 40.2389C41.689 44.5244 37.0789 47.0104 31.9757 47.0038C26.8925 46.9904 22.309 44.5111 19.4643 40.2323C18.2251 38.3594 17.4323 36.24 17.1126 33.9006C16.9527 32.7809 17.006 30.4816 17.2058 29.4352C17.7321 26.6559 18.938 24.1299 20.6301 22.2171L20.9166 21.8905L21.2097 22.6637C21.9626 24.6765 23.1484 26.4027 24.6274 27.6557C25.2536 28.1888 25.2203 28.1289 25.3136 29.1153L25.3536 29.5951L25.0937 29.5152C24.6874 29.3952 23.3216 29.4218 22.7753 29.5618C21.796 29.8151 20.8567 30.3616 20.2038 31.0414C19.7441 31.5279 19.5176 31.9145 19.3843 32.4344C18.918 34.2139 20.0772 35.9468 21.9159 36.2133L22.4556 36.2933L22.4289 36.5599C22.3823 36.9665 22.5222 38.2195 22.6821 38.826C23.0152 40.0656 23.5948 41.0987 24.4742 42.0251C25.1404 42.7249 25.7 43.1448 26.5061 43.538C28.7912 44.6577 31.5293 44.4511 33.6212 42.9982C34.2675 42.5583 36.2461 40.5322 36.7791 39.7791C37.7717 38.3661 38.5379 36.3666 38.7111 34.7404L38.751 34.3472L39.2241 34.1272C41.1361 33.2275 42.5151 31.5479 43.0681 29.4285C43.208 28.9153 43.228 28.6887 43.2213 27.7356C43.2146 26.7692 43.1947 26.556 43.0414 25.9894C42.5018 23.9766 41.2027 22.3771 39.364 21.4707C38.9975 21.284 38.3979 21.0574 38.0315 20.9575C37.4386 20.8042 37.2387 20.7842 36.2661 20.7775C35.3534 20.7775 35.0736 20.7975 34.6006 20.9175C32.7218 21.3907 31.1496 22.557 30.2036 24.1633C30.037 24.4432 29.8771 24.6565 29.8372 24.6431C29.3375 24.4165 28.8978 24.2766 28.5647 24.2366C27.5454 24.1233 26.4262 24.6298 25.8066 25.4829L25.6201 25.7362L25.1604 25.2496C24.2343 24.2766 23.7946 23.5234 23.0418 21.6373L22.5355 20.371L22.7553 20.1843C23.2084 19.7911 24.5941 18.918 25.3669 18.5381C28.0451 17.2185 31.0097 16.7253 33.9343 17.1118ZM37.6318 23.0036C40.4366 23.8967 41.8955 26.8425 40.8563 29.5351C40.25 31.1214 38.8976 32.2411 37.0922 32.661L36.7524 32.7409L36.7124 33.6207C36.6325 35.4735 36.1661 36.9132 35.1468 38.4661C34.6805 39.1792 32.7485 41.1254 32.1889 41.4586C30.9897 42.1584 29.6373 42.365 28.3715 42.0318C26.9525 41.6652 25.6201 40.5388 25.0005 39.1592C24.6474 38.3861 24.5275 37.7996 24.5208 36.8665C24.5141 35.8401 24.6341 35.3203 25.0005 34.7937L25.2603 34.4205L24.5874 33.7473C24.2143 33.3741 23.8812 33.0675 23.8479 33.0675C23.808 33.0675 23.5415 33.3075 23.2417 33.5941C22.6021 34.2206 22.3889 34.3005 21.9226 34.0739C21.6095 33.9206 21.343 33.5407 21.343 33.2408C21.343 32.6143 22.249 31.8479 23.3216 31.5679C25.6467 30.9614 27.6387 33.4274 26.6127 35.6335C26.5128 35.8601 26.3329 36.1467 26.2196 36.2733L26.0131 36.5066L26.7659 37.2597L27.5121 38.0062L27.8252 37.6196C28.5714 36.6999 28.9444 35.6468 28.9511 34.4338C28.9578 33.4808 28.8378 33.0009 28.3049 31.8679C27.6253 30.4216 27.3722 29.5018 27.2989 28.1355C27.2323 26.9692 27.4188 26.5226 28.0517 26.336C28.2849 26.2627 28.3582 26.2694 28.6247 26.3893C29.0777 26.5893 29.2043 26.8359 29.2043 27.5024C29.2043 29.5885 29.9038 31.3613 31.2762 32.7276C31.5626 33.0209 32.0023 33.3874 32.2488 33.5541C32.8751 33.9673 33.5879 34.3139 33.6545 34.2339C33.7345 34.1472 34.4273 32.401 34.394 32.3744C34.3807 32.3611 34.1409 32.2411 33.8677 32.0945C33.5013 31.9078 33.2082 31.6746 32.7618 31.2347C32.2488 30.7282 32.1089 30.5349 31.8491 30.0017C31.3428 28.982 31.1896 28.0822 31.3361 27.1025C31.6559 25.0097 33.1615 23.3768 35.2135 22.9036C35.8264 22.7636 37.0322 22.817 37.6318 23.0036Z"
            fill="#A6D965" stroke="#A6D965" />
    </g>
    <defs>
        <clipPath id="clip0_123_6501">
            <rect width="36" height="36" fill="white" transform="translate(14 14)" />
        </clipPath>
    </defs>
</svg>
    