<svg width="175" height="60" viewBox="0 0 175 60" fill="none" xmlns="http://www.w3.org/2000/svg">
    <g clip-path="url(#clip0_113_34137)">
        <path fill-rule="evenodd" clip-rule="evenodd"
            d="M59.8215 0H142.784C160.503 0 175 13.5009 175 29.9999V30C175 46.499 160.502 60 142.784 60H59.8215V0.000104464V0Z"
            fill="#23C8CC" />
        <path fill-rule="evenodd" clip-rule="evenodd"
            d="M32.2156 0.000104464H55.3008V60H32.2156C14.4969 60 0 46.5001 0 30V29.9999C0 13.5 14.497 0 32.2156 0V0.000104464Z"
            fill="#23C8CC" />
        <path fill-rule="evenodd" clip-rule="evenodd"
            d="M9.85554 30.1877C9.85554 28.6341 10.3695 27.0543 11.5164 26.039C12.5986 25.0806 13.9427 24.5634 15.4725 24.5634H20.6213V18.9392C20.6213 14.715 26.2121 11.8557 29.8193 15.4469C30.6694 16.2933 31.3869 17.5708 31.3869 19.2204V35.3434H14.8171C12.3921 35.3434 9.85554 32.8804 9.85554 30.1878V30.1877ZM17.0638 19.5015V21.095C14.2752 21.095 12.3812 20.953 9.90792 22.8347C9.4762 23.1633 9.11146 23.4482 8.75434 23.8356C8.57479 24.0303 8.4692 24.1884 8.2932 24.4048C8.12878 24.6069 7.99878 24.7733 7.85021 24.9924C7.5584 25.4232 7.30425 25.8883 7.07713 26.3742C5.99929 28.6802 6.1367 31.2677 7.05824 33.5508C7.79095 35.3657 9.73327 37.3218 11.5131 38.089C12.5151 38.5209 13.8012 38.9051 15.1915 38.9051H31.3869C31.3869 41.2242 31.5292 42.605 29.9122 44.4589C28.0196 46.6288 24.3871 46.7396 22.0951 44.4596C20.1677 42.5424 20.9857 40.6861 20.3404 40.6861H17.0638C17.0638 45.6369 21.1257 49.685 25.9572 49.685C29.9445 49.685 33.4591 46.9267 34.5108 43.3456C34.7127 42.6583 34.857 42.1015 34.8519 41.2498C34.8478 40.5754 34.9947 39.2543 34.8506 38.9051C37.9973 38.9051 39.9412 38.8463 42.3695 36.8726C44.1446 35.4299 45.6164 32.9209 45.6164 30.4686C45.6164 27.7105 44.99 25.6651 43.0654 23.7429C42.2267 22.9052 41.746 22.5354 40.6237 21.9696C39.3205 21.3124 38.3149 21.0949 36.7229 21.0949V24.5632C42.0854 24.5632 43.9865 31.4639 39.813 34.4065C38.3336 35.4496 37.2753 35.3431 34.8507 35.3431L34.8529 18.6555C34.8706 14.59 30.8845 10.3149 26.2382 10.3149C24.2357 10.3149 23.7669 10.5084 22.1313 11.1708C21.6346 11.372 21.1854 11.7137 20.7317 12.019C19.9711 12.5309 19.6293 12.9798 19.0536 13.6194C17.7592 15.0575 17.0639 17.3928 17.0639 19.5013L17.0638 19.5015Z"
            fill="#FEFEFE" />
        <path fill-rule="evenodd" clip-rule="evenodd"
            d="M22.4934 18.9394V26.4384H15.2851C13.3231 26.4384 11.7277 28.1342 11.7277 29.7192C11.7277 30.8562 11.9329 31.6219 12.6838 32.4176C13.0757 32.8329 14.0557 33.4688 14.8169 33.4688H29.5144V19.3142C29.5144 16.7729 27.1156 15.008 24.6578 15.9509C23.458 16.4112 22.4933 17.5776 22.4933 18.9393L22.4934 18.9394Z"
            fill="#E00000" />
        <path
            d="M73.7307 28.7137C73.7307 28.2222 73.5662 27.8508 73.2371 27.5998C72.9082 27.3489 72.493 27.2233 71.9916 27.2233H71.506V30.251H72.0229C73.1614 30.251 73.7306 29.7385 73.7306 28.7137H73.7307ZM68.7172 34.5492V32.7609C67.5448 32.7609 66.6988 32.6564 66.1792 32.4472C64.602 31.8093 63.8134 30.5072 63.8134 28.541C63.8134 26.7527 64.5447 25.5604 66.0095 24.9643C66.3829 24.8075 66.8293 24.7186 67.3463 24.6976C67.4508 24.6872 67.9078 24.6819 68.7172 24.6819V23.2544H71.5061V24.6819C72.3259 24.6819 72.7882 24.6872 72.8926 24.6976C73.42 24.7186 73.8718 24.8075 74.2504 24.9643C75.7414 25.5604 76.4883 26.7526 76.4883 28.541C76.4883 29.4404 76.3003 30.2195 75.9215 30.8784C75.5115 31.6105 74.9058 32.1333 74.1067 32.4472C73.5819 32.6564 72.715 32.7609 71.5061 32.7609V34.5492H68.7172ZM66.5708 28.7137C66.5708 29.7385 67.1401 30.251 68.2785 30.251H68.7956V27.2233H68.3098C67.8084 27.2233 67.4011 27.3436 67.0878 27.5841C66.7431 27.8455 66.5708 28.2221 66.5708 28.7137ZM78.0078 23.2544H80.8906V29.6548L85.4028 23.2544H87.7057V34.5491H84.9015V28.0704L80.3893 34.5491H78.0079V23.2544H78.0078ZM89.758 23.2544H92.6094V27.49H96.3381V23.2544H99.1896V34.5491H96.3381V30.0313H92.6094V34.5491H89.758V23.2544ZM109.452 23.2544H113.133V34.5491H110.517L110.611 25.9526L108.167 34.5491H106.256L103.827 25.8585L103.905 34.5491H101.258V23.2544H104.971L107.227 30.7372L109.452 23.2544ZM121.453 34.5491H115.186V23.2544H121.453V25.7957H118.069V27.5213H121.343V30.0626H118.069V32.0078H121.453V34.5491ZM122.314 32.0078H123.364L126.153 23.2544H129.49L132.279 32.0078H133.328V36.7454H130.775V34.5491H124.868V36.7454H122.314V32.0078ZM127.829 26.5801L126.262 32.0078H129.396L127.829 26.5801H127.829ZM134.441 23.2544H137.323V29.6548L141.836 23.2544H144.139V34.5491H141.334V28.0704L136.822 34.5491H134.441V23.2544H134.441ZM149.089 34.5491H146.207V23.2544H149.089V28.3842L152.301 23.2544H155.325L151.58 28.886L155.56 34.5491H152.191L149.089 29.6233V34.5491H149.089ZM162.626 30.6274L161.451 26.69L160.26 30.6274H162.626ZM167.075 34.5491H163.926L163.378 32.9177H159.461L158.866 34.5491H155.779L160.307 23.2544H162.579L167.075 34.5491Z"
            fill="#FEFEFE" />
    </g>
    <defs>
        <clipPath id="clip0_113_34137">
            <rect width="175" height="60" fill="white" />
        </clipPath>
    </defs>
</svg>
    