<svg width="203" height="246" viewBox="0 0 203 246" fill="none" xmlns="http://www.w3.org/2000/svg">
    <g clip-path="url(#clip0_211_3862)">
        <path
            d="M123.149 1.422C115.98 3.05727 106.185 6.54108 99.5835 9.74049C89.8594 14.5041 83.0454 23.5336 81.6968 33.6295C80.9161 38.9619 81.129 40.0995 83.2584 42.4457C85.1038 44.5786 89.6465 44.6497 95.8926 42.659C102.139 40.7393 108.03 37.0422 114.063 31.2122C119.6 25.8087 123.149 23.8891 130.459 22.396C145.791 19.1255 159.206 22.8226 169.569 33.3451C179.293 43.1567 183.836 53.537 184.403 67.259C184.616 73.6578 184.403 76.2885 183.197 81.1232C180.855 90.5081 176.241 99.111 169.924 105.865C155.728 121.009 138.622 128.19 96.1766 136.864C76.2315 140.988 69.5594 142.694 64.5909 145.183C58.6996 148.027 52.3825 154.283 49.8273 159.758C48.1947 163.313 47.9108 164.735 47.9108 170.636C47.9108 176.537 48.1238 177.888 49.8982 181.372C52.3115 186.349 58.4157 192.179 63.4552 194.454C67.0042 196.018 76.4444 198.151 76.9412 197.582C77.0832 197.44 77.0122 194.383 76.7993 190.757L76.5154 184.287L73.9601 183.789C67.9979 182.651 63.2423 178.67 61.6808 173.622C59.9063 167.721 64.094 160.967 71.4759 157.625C76.0185 155.634 77.2961 155.35 97.5961 151.795C143.662 143.619 163.394 135.94 180.5 119.445C190.437 109.918 196.754 99.3243 200.942 84.8914C202.361 80.0567 202.645 77.7104 202.645 67.5434C202.645 57.4474 202.432 54.959 201.013 49.7688C194.341 25.311 176.312 6.82547 153.812 1.422C146.075 -0.426559 131.311 -0.426559 123.149 1.422ZM102.494 19.0544C102.991 19.9075 101.003 23.6047 99.2996 25.0266C97.1703 26.8041 95.1119 26.6619 95.1119 24.8133C95.1119 21.8983 101.287 17.1347 102.494 19.0544Z"
            fill="#6AA1CE" />
        <path
            d="M1.7035 78.7057C5.82028 86.882 14.7636 96.9069 24.2038 103.946C38.8255 114.895 56.9252 121.791 76.8703 124.138L80.9161 124.564V129.541V134.447L83.2584 134.02C84.465 133.736 88.085 133.025 91.208 132.385L96.8864 131.176L97.0993 127.835L97.3122 124.564L101.713 124.066C118.677 122.147 136.138 115.961 149.695 107.003C159.987 100.177 170.988 88.8017 175.886 79.7011L178.228 75.3641H89.1497H0L1.7035 78.7057Z"
            fill="#6AA1CE" />
        <path
            d="M91.208 158.549C89.6465 158.833 86.8783 159.331 85.0329 159.544L81.6968 160.042L82.0517 179.025C82.2647 189.477 82.5486 200.355 82.7615 203.128L83.1874 208.318L85.0329 207.322C86.0975 206.754 88.7947 205.758 90.9951 205.047C94.686 203.91 95.1119 203.554 95.3958 201.635C95.6087 200.426 95.8926 190.046 96.1056 178.599C96.4605 155.35 96.9573 157.412 91.208 158.549Z"
            fill="#6AA1CE" />
        <path
            d="M101.5 187.842C101.5 190.33 101.287 192.961 101.074 193.743C100.79 194.88 101.216 195.449 103.062 196.231C105.972 197.582 107.036 200.213 105.688 202.986C104.197 205.972 101.642 207.536 95.6797 209.029C84.749 211.731 77.1542 217.49 73.3923 225.737C70.4112 232.207 70.3402 245.289 73.2504 245.858C74.1021 246 74.386 245.147 74.7409 241.592C75.2378 235.193 77.5801 229.576 81.342 225.737C85.3168 221.613 89.5045 219.765 97.5962 218.627C105.191 217.561 108.101 216.423 111.792 213.224C121.516 204.621 119.032 189.548 106.965 184.5C102.068 182.509 101.5 182.865 101.5 187.842Z"
            fill="#6AA1CE" />
        <path
            d="M92.2727 225.097C86.4524 227.159 82.6906 231.283 80.6322 237.966L80.1353 239.601H104.268C118.109 239.601 128.472 239.317 128.472 238.961C128.472 237.895 120.664 231.069 116.831 228.865C108.882 224.244 99.0867 222.751 92.2727 225.097Z"
            fill="#6AA1CE" />
        <path
            d="M62.3196 228.368C58.2028 230.572 49.6853 237.753 49.6853 238.961C49.6853 239.317 53.1633 239.601 57.422 239.601H65.0877L65.5846 234.695C65.7975 231.922 66.2944 228.936 66.7203 227.941C67.572 225.595 67.2881 225.666 62.3196 228.368Z"
            fill="#6AA1CE" />
    </g>
    <defs>
        <clipPath id="clip0_211_3862">
            <rect width="203" height="246" fill="white" />
        </clipPath>
    </defs>
</svg>
    