<svg width="40" height="40" viewBox="0 0 40 40" fill="none" xmlns="http://www.w3.org/2000/svg">
    <circle cx="20" cy="20" r="20" fill="#E00000"/>
    <path d="M18.1268 14.1929C17.8991 13.6234 17.3475 13.25 16.7341 13.25H14.6711C13.8862 13.25 13.25 13.8861 13.25 14.6709C13.25 21.3419 18.6581 26.75 25.3291 26.75C26.1139 26.75 26.75 26.1137 26.75 25.3289L26.7503 23.2655C26.7503 22.6521 26.377 22.1006 25.8075 21.8728L23.8302 21.0822C23.3186 20.8776 22.7362 20.9697 22.313 21.3224L21.8026 21.748C21.2066 22.2447 20.3297 22.2052 19.7811 21.6566L18.3442 20.2183C17.7956 19.6697 17.7551 18.7935 18.2517 18.1975L18.6772 17.6872C19.03 17.264 19.1229 16.6814 18.9182 16.1698L18.1268 14.1929Z" stroke="white" stroke-width="1.5" stroke-linecap="round" stroke-linejoin="round"/>
    </svg>
    